<svg width="19" height="54" viewBox="0 0 19 54" fill="none" xmlns="http://www.w3.org/2000/svg">
<g id="soda-glass-bottle-icon 1" clip-path="url(#clip0_89_1185)">
<path id="Vector" d="M5.17482 53.0924C4.18878 53.2076 3.18948 53.1061 2.24677 52.7948C1.59448 52.5673 1.02926 52.1421 0.629654 51.5785C0.264992 51.0417 0.0478661 50.4185 5.83916e-05 49.7713C-0.0408242 48.5174 0.185554 47.2691 0.664153 46.1094C1.67323 43.4439 1.29375 39.9244 0.819396 35.9347C0.163926 30.2025 -0.595039 23.5344 2.44513 16.6808C2.69956 16.0554 2.96261 15.43 3.21272 14.8434C4.54522 11.6776 5.36887 9.6935 5.46374 5.90224C5.10496 5.7644 4.78035 5.55034 4.51233 5.27481C4.2443 4.99929 4.03925 4.66887 3.91132 4.30638C3.76098 3.91615 3.67646 3.50367 3.6612 3.08575C3.64478 2.67007 3.70471 2.25489 3.83801 1.86082L3.88113 1.7875C4.02061 1.35595 4.28621 0.976122 4.64364 0.697039C5.00108 0.417956 5.43394 0.252428 5.88635 0.221822C6.55476 0.174377 8.34005 0.135559 9.96147 0.135559C11.2854 0.135559 12.5273 0.161438 13.0318 0.226135C13.4599 0.28061 13.8653 0.449604 14.2053 0.715295C14.5453 0.980986 14.8073 1.33353 14.9637 1.73574C15.1405 2.1603 15.2257 2.61738 15.2139 3.07713C15.2088 3.55117 15.1029 4.01871 14.9034 4.44871C14.7531 4.78232 14.5376 5.08243 14.2695 5.33134C14.0014 5.58025 13.6861 5.77291 13.3423 5.89793C13.4199 9.57273 14.2695 11.5525 15.5545 14.5242C15.8305 15.1669 16.1238 15.8527 16.4601 16.6808C19.4787 23.5258 18.7284 30.1853 18.0772 35.9261C17.646 39.8079 17.2363 43.2584 18.1548 45.9197C18.7672 47.6924 19.2631 49.4866 18.8276 50.8755C18.3532 52.398 16.9258 53.3297 13.7261 53.0709L5.17482 53.0924ZM5.73542 46.8729C5.65963 47.045 5.52093 47.1817 5.3477 47.255C5.17447 47.3282 4.9798 47.3325 4.80351 47.267C4.62723 47.2014 4.48266 47.0709 4.39937 46.9023C4.31609 46.7336 4.30039 46.5395 4.35548 46.3596C4.60662 45.6538 4.77591 44.9215 4.86002 44.1771C4.95628 43.3412 4.99087 42.4993 4.96352 41.6583C4.95951 41.4627 5.03337 41.2735 5.16883 41.1323C5.30428 40.9912 5.49026 40.9096 5.68583 40.9056C5.8814 40.9016 6.07055 40.9755 6.21167 41.111C6.35279 41.2465 6.43432 41.4325 6.43832 41.6281C6.46559 42.5397 6.42812 43.452 6.3262 44.3583C6.22643 45.2164 6.0282 46.0601 5.73542 46.8729ZM6.1149 37.3839C6.13606 37.5784 6.07912 37.7733 5.9566 37.9258C5.83408 38.0783 5.65602 38.1758 5.46159 38.197C5.26716 38.2181 5.07229 38.1612 4.91985 38.0386C4.76741 37.9161 4.66988 37.738 4.64872 37.5435L4.30805 34.5243C4.2924 34.3324 4.35239 34.142 4.47521 33.9938C4.59804 33.8455 4.77394 33.7512 4.96537 33.7309C5.15679 33.7106 5.34855 33.766 5.49969 33.8853C5.65082 34.0045 5.74935 34.1781 5.77423 34.369L6.1149 37.3882V37.3839ZM6.40383 4.56085H9.10333C9.2989 4.56085 9.48646 4.63856 9.62475 4.77688C9.76304 4.91519 9.84073 5.10279 9.84073 5.2984C9.84073 5.49401 9.76304 5.68161 9.62475 5.81993C9.48646 5.95824 9.2989 6.03595 9.10333 6.03595H6.94718C6.85231 10.004 5.96828 12.0744 4.57541 15.3912C4.34686 15.9389 4.09674 16.5255 3.81213 17.22C3.71295 17.4485 3.61377 17.6815 3.5189 17.9144H15.4208C15.3303 17.6944 15.2354 17.4831 15.1405 17.2545L15.0931 17.2415C14.7913 16.504 14.4808 15.7794 14.1918 15.1065C12.7731 11.7811 11.8546 9.64606 11.8546 5.31134C11.8531 5.12884 11.9185 4.95212 12.0385 4.81462C12.1585 4.67712 12.3247 4.58837 12.5057 4.56517C12.7324 4.5425 12.9491 4.46036 13.1338 4.32707C13.3186 4.19377 13.4649 4.01404 13.5579 3.80605C13.6648 3.56833 13.7234 3.31178 13.7304 3.05125C13.7378 2.79877 13.6922 2.54754 13.5967 2.3137C13.537 2.15232 13.4358 2.00953 13.3033 1.89974C13.1708 1.78994 13.0117 1.71701 12.8421 1.68829C12.4109 1.63654 11.2509 1.61497 9.96147 1.61497C8.35299 1.61497 6.61513 1.64948 5.98984 1.69261C5.82097 1.70851 5.66053 1.77387 5.5286 1.88051C5.39668 1.98715 5.29912 2.13032 5.24813 2.29213V2.33958C5.1734 2.56465 5.13981 2.80133 5.14895 3.03831C5.1581 3.28761 5.20762 3.53378 5.29556 3.76723C5.35726 3.97095 5.47481 4.1533 5.63488 4.29358C5.79495 4.43386 5.99112 4.52645 6.20115 4.56085H6.22271C6.28685 4.56067 6.3507 4.56938 6.41245 4.58673L6.40383 4.56085ZM15.9556 19.4326H2.96261C1.98256 22.5798 1.56364 25.875 1.72498 29.1674H17.1803C17.3458 25.8757 16.9312 22.5806 15.9556 19.4326ZM17.1242 30.6468H1.79398C1.90178 32.4195 2.10015 34.1404 2.28558 35.7838C2.75993 39.9416 3.17822 43.6208 2.06134 46.627C1.66082 47.5821 1.46542 48.6107 1.4878 49.6462C1.50911 50.0345 1.63096 50.4105 1.84141 50.7374C2.06792 51.0522 2.38779 51.2876 2.75562 51.4103C3.50158 51.6407 4.288 51.7098 5.0627 51.613H13.7994C16.1539 51.8114 17.1458 51.3068 17.4131 50.4571C17.7193 49.4694 17.2838 47.9468 16.7533 46.4157C15.727 43.4482 16.1367 39.8424 16.5981 35.7794C16.7878 34.1361 16.9819 32.4152 17.094 30.6425L17.1242 30.6468Z" fill="#555252"/>
</g>
<defs>
<clipPath id="clip0_89_1185">
<rect width="19" height="53" fill="white" transform="translate(0 0.135559)"/>
</clipPath>
</defs>
</svg>
