<svg width="53" height="53" viewBox="0 0 53 53" fill="none" xmlns="http://www.w3.org/2000/svg">
<g id="circum:pizza">
<path id="Vector" d="M45.9488 29.6734L45.9267 29.585C41.6505 19.3936 33.5353 11.2943 23.3355 7.03796C22.9002 6.85963 22.4332 6.77152 21.9628 6.77896C21.4924 6.78641 21.0285 6.88925 20.599 7.08126C20.1696 7.27328 19.7836 7.55047 19.4644 7.89604C19.1452 8.24162 18.8995 8.64839 18.7421 9.09171L6.99381 41.5321C6.80243 42.0583 6.74051 42.6229 6.81328 43.1781C6.88605 43.7333 7.09137 44.2628 7.41189 44.7219C7.73241 45.181 8.15872 45.5563 8.65481 45.816C9.15091 46.0756 9.7022 46.2121 10.2621 46.2138C10.6679 46.2142 11.0709 46.1471 11.4546 46.015L43.9171 34.2667C44.3615 34.1057 44.7686 33.8564 45.114 33.5338C45.4594 33.2112 45.7358 32.822 45.9267 32.3896C46.116 31.9624 46.2155 31.501 46.2193 31.0338C46.2231 30.5666 46.1311 30.1036 45.9488 29.6734ZM30.5346 36.2542C30.6661 36.3904 30.8146 36.5092 30.9763 36.6075L10.7038 43.9458C10.4761 44.0234 10.2313 44.0356 9.99704 43.981C9.76281 43.9263 9.54861 43.807 9.37881 43.6367C9.19801 43.4691 9.07182 43.251 9.01668 43.0108C8.96154 42.7705 8.98 42.5192 9.06964 42.2896L14.3476 27.7146C14.4459 27.8763 14.5647 28.0248 14.7009 28.1562C15.4506 28.9059 16.4674 29.3271 17.5276 29.3271C18.5878 29.3271 19.6045 28.9059 20.3542 28.1562C21.1039 27.4066 21.5251 26.3898 21.5251 25.3296C21.5251 24.2694 21.1039 23.2526 20.3542 22.5029C19.8723 22.019 19.2728 21.6689 18.6146 21.4869C17.9563 21.3049 17.2621 21.2974 16.6001 21.465L19.0071 14.8842C25.0019 17.6206 30.1893 21.8572 34.068 27.1846C32.7372 27.2537 31.4788 27.8121 30.5346 28.7525C30.0415 29.2448 29.6503 29.8294 29.3834 30.473C29.1165 31.1167 28.9791 31.8066 28.9791 32.5034C28.9791 33.2001 29.1165 33.89 29.3834 34.5337C29.6503 35.1773 30.0415 35.7619 30.5346 36.2542ZM43.8951 31.5063C43.7524 31.822 43.4903 32.0683 43.1663 32.1909L40.2513 33.2288C40.0084 32.7209 39.7655 32.235 39.5226 31.7492C39.2576 31.2192 38.9705 30.6892 38.6834 30.1813C37.9988 28.9667 37.248 27.7963 36.4751 26.6921C32.2495 20.6409 26.476 15.8359 19.758 12.7796L20.818 9.84254C20.8752 9.68017 20.9656 9.53151 21.0835 9.40604C21.2014 9.28056 21.3441 9.18103 21.5026 9.11379C21.6593 9.03317 21.8344 8.9951 22.0105 9.00338C22.1993 9.01016 22.3857 9.04745 22.5626 9.11379C32.2153 13.1533 39.8876 20.8336 43.9171 30.4905V30.5346C43.9791 30.6897 44.0092 30.8557 44.0054 31.0227C44.0016 31.1897 43.9641 31.3542 43.8951 31.5063Z" fill="#555252"/>
<path id="Vector_2" d="M17.3023 38.7872C18.6134 38.7872 19.6763 37.7243 19.6763 36.4132C19.6763 35.1021 18.6134 34.0392 17.3023 34.0392C15.9912 34.0392 14.9283 35.1021 14.9283 36.4132C14.9283 37.7243 15.9912 38.7872 17.3023 38.7872Z" fill="#555252"/>
</g>
</svg>
