<svg width="50" height="51" viewBox="0 0 50 51" fill="none" xmlns="http://www.w3.org/2000/svg">
<g id="tabler:salad">
<g id="Group">
<path id="Vector" d="M38.5417 23.5709C39.2729 21.4522 39.4292 18.9126 39.5833 15.8334V13.1542H34.8833C28.9875 13.1542 25.2667 14.8292 23.1333 17.4792M8.33333 23.5709H41.6667C42.2192 23.5709 42.7491 23.7904 43.1398 24.1811C43.5305 24.5718 43.75 25.1017 43.75 25.6542V26.6959C43.75 29.8209 38.5062 38.3063 35.4167 40.2376V42.3209C35.4167 42.8734 35.1972 43.4033 34.8065 43.794C34.4158 44.1847 33.8859 44.4042 33.3333 44.4042H16.6667C16.1141 44.4042 15.5842 44.1847 15.1935 43.794C14.8028 43.4033 14.5833 42.8734 14.5833 42.3209V40.2376C11.0687 38.0417 6.25 29.8209 6.25 26.6959V25.6542C6.25 25.1017 6.46949 24.5718 6.86019 24.1811C7.25089 23.7904 7.7808 23.5709 8.33333 23.5709Z" stroke="#555252" stroke-width="2" stroke-linecap="round" stroke-linejoin="round"/>
<path id="Vector_2" d="M10.9479 23.5876C10.6553 22.2102 10.4776 20.811 10.4166 19.4042V17.3209H14.0729C16.1145 17.3209 17.825 17.5792 19.2375 18.0501M16.6666 17.3209L18.75 8.98756L27.0833 14.1959" stroke="#555252" stroke-width="2" stroke-linecap="round" stroke-linejoin="round"/>
<path id="Vector_3" d="M27.0833 23.5709V22.5292C27.0833 21.1479 26.5346 19.8231 25.5578 18.8464C24.5811 17.8696 23.2563 17.3209 21.875 17.3209C20.4936 17.3209 19.1689 17.8696 18.1921 18.8464C17.2154 19.8231 16.6666 21.1479 16.6666 22.5292V23.5709" stroke="#555252" stroke-width="2" stroke-linecap="round" stroke-linejoin="round"/>
</g>
</g>
</svg>
