<svg width="54" height="54" viewBox="0 0 54 54" fill="none" xmlns="http://www.w3.org/2000/svg">
<g id="Logo">
<circle id="Ellipse 4" cx="27" cy="27" r="26" fill="#F84C4C" stroke="#F2CC04" stroke-width="2"/>
<g id="Sancho">
<path d="M15.0742 16.3867C14.9648 16.6367 14.8672 16.8555 14.7812 17.043C14.6953 17.2305 14.6211 17.3906 14.5586 17.5234C14.4883 17.6719 14.4297 17.8047 14.3828 17.9219C14.3438 18.0078 14.293 18.125 14.2305 18.2734C14.168 18.4062 14.0898 18.582 13.9961 18.8008C13.9102 19.0117 13.7969 19.2852 13.6562 19.6211C13.5859 19.332 13.5 19.0781 13.3984 18.8594C13.2969 18.6406 13.1875 18.4492 13.0703 18.2852C12.9531 18.1211 12.8281 17.9883 12.6953 17.8867C12.5703 17.7773 12.4453 17.6875 12.3203 17.6172C12.0312 17.4609 11.7266 17.375 11.4062 17.3594C10.9844 17.3828 10.6523 17.4531 10.4102 17.5703C10.1758 17.6797 10.0039 17.8086 9.89453 17.957C9.78516 18.0977 9.72656 18.2461 9.71875 18.4023C9.71094 18.5508 9.73047 18.6758 9.77734 18.7773C9.81641 18.8711 9.95312 18.9805 10.1875 19.1055C10.4297 19.2305 10.7188 19.375 11.0547 19.5391C11.3984 19.6953 11.7656 19.875 12.1562 20.0781C12.5469 20.2734 12.9062 20.4922 13.2344 20.7344C13.5703 20.9688 13.8516 21.2266 14.0781 21.5078C14.3125 21.7812 14.4414 22.0742 14.4648 22.3867C14.4883 22.7852 14.4844 23.1445 14.4531 23.4648C14.4219 23.7852 14.3125 24.0586 14.125 24.2852C13.9375 24.5117 13.6445 24.6914 13.2461 24.8242C12.8555 24.957 12.3125 25.0391 11.6172 25.0703C10.8984 25.1016 10.3086 25.0625 9.84766 24.9531C9.38672 24.8438 9.01172 24.6953 8.72266 24.5078C8.44141 24.3203 8.23047 24.1133 8.08984 23.8867C7.95703 23.6602 7.85938 23.4453 7.79688 23.2422C7.73438 23.0312 7.69141 22.8516 7.66797 22.7031C7.64453 22.5469 7.60547 22.4531 7.55078 22.4219C7.48828 22.3828 7.42578 22.3477 7.36328 22.3164C7.30859 22.2852 7.25 22.2578 7.1875 22.2344C7.125 22.2031 7.0625 22.1758 7 22.1523L10.4102 21.6016C10.2148 21.7578 10.0625 21.9023 9.95312 22.0352C9.85156 22.168 9.77344 22.2852 9.71875 22.3867C9.65625 22.5039 9.61328 22.6133 9.58984 22.7148C9.57422 22.8242 9.60938 22.9609 9.69531 23.125C9.78125 23.2891 9.89844 23.4492 10.0469 23.6055C10.2031 23.7539 10.3828 23.8789 10.5859 23.9805C10.7891 24.082 11 24.125 11.2188 24.1094C11.4922 24.0859 11.7148 24.0195 11.8867 23.9102C12.0586 23.793 12.1875 23.6484 12.2734 23.4766C12.3672 23.3047 12.4219 23.1172 12.4375 22.9141C12.4531 22.7109 12.4336 22.5117 12.3789 22.3164C12.332 22.1133 12.2539 21.9258 12.1445 21.7539C12.0352 21.5742 11.9062 21.4258 11.7578 21.3086C11.625 21.2148 11.418 21.125 11.1367 21.0391C10.8633 20.9531 10.5547 20.8594 10.2109 20.7578C9.875 20.6562 9.52734 20.5391 9.16797 20.4062C8.81641 20.2734 8.49609 20.1094 8.20703 19.9141C7.92578 19.7188 7.69922 19.4883 7.52734 19.2227C7.36328 18.957 7.30078 18.6367 7.33984 18.2617C7.37109 17.9414 7.47266 17.6758 7.64453 17.4648C7.82422 17.2461 8.04688 17.0742 8.3125 16.9492C8.58594 16.8164 8.88672 16.7188 9.21484 16.6562C9.55078 16.5938 9.89062 16.5586 10.2344 16.5508C10.5859 16.5352 10.9297 16.5391 11.2656 16.5625C11.6094 16.5859 11.918 16.6133 12.1914 16.6445C12.4648 16.6758 12.6953 16.707 12.8828 16.7383C13.0781 16.7617 13.1992 16.7773 13.2461 16.7852C13.4492 16.8008 13.6523 16.7969 13.8555 16.7734C14.0352 16.7578 14.2305 16.7227 14.4414 16.668C14.6602 16.6055 14.8711 16.5117 15.0742 16.3867Z" fill="#F2CC04"/>
<path d="M15.9531 20.2188C15.9922 20.1719 16.0156 20.0859 16.0234 19.9609C16.0391 19.8281 16.0703 19.6797 16.1172 19.5156C16.1719 19.3516 16.2617 19.1797 16.3867 19C16.5117 18.8203 16.7148 18.6523 16.9961 18.4961C17.2695 18.3398 17.5352 18.2461 17.793 18.2148C18.0508 18.1836 18.2969 18.1953 18.5312 18.25C18.7656 18.3047 18.9844 18.3906 19.1875 18.5078C19.3984 18.625 19.5898 18.7539 19.7617 18.8945C19.8789 18.9883 19.9727 19.125 20.043 19.3047C20.1133 19.4766 20.168 19.6719 20.207 19.8906C20.2461 20.1094 20.2734 20.3398 20.2891 20.582C20.3125 20.8164 20.3281 21.0469 20.3359 21.2734C20.3438 21.4922 20.3477 21.6953 20.3477 21.8828C20.3555 22.0625 20.3711 22.2109 20.3945 22.3281C20.4258 22.5 20.4805 22.6484 20.5586 22.7734C20.6367 22.8906 20.7227 22.9922 20.8164 23.0781C20.9102 23.1562 21.0039 23.2188 21.0977 23.2656C21.1914 23.3125 21.2734 23.3477 21.3438 23.3711C21.3906 23.3945 21.4336 23.4102 21.4727 23.418C21.5508 23.4492 21.6055 23.4492 21.6367 23.418C21.5898 23.5273 21.5469 23.6211 21.5078 23.6992C21.4688 23.7773 21.4375 23.8438 21.4141 23.8984C21.3828 23.9609 21.3555 24.0117 21.332 24.0508C21.3086 24.0977 21.2812 24.1406 21.25 24.1797C21.2266 24.2188 21.1953 24.2617 21.1562 24.3086C21.1172 24.3555 21.0781 24.4062 21.0391 24.4609C20.9375 24.4219 20.8398 24.375 20.7461 24.3203C20.6602 24.2656 20.582 24.2148 20.5117 24.168C20.4258 24.1133 20.3477 24.0586 20.2773 24.0039C20.207 23.9492 20.1406 23.8867 20.0781 23.8164C20.0234 23.7539 19.9648 23.6875 19.9023 23.6172C19.8477 23.5469 19.8008 23.4688 19.7617 23.3828C19.7148 23.4844 19.6016 23.6289 19.4219 23.8164C19.25 24.0039 19.0234 24.1758 18.7422 24.332C18.4609 24.4805 18.1328 24.5859 17.7578 24.6484C17.3906 24.7109 16.9844 24.668 16.5391 24.5195C16.3438 24.457 16.1602 24.3672 15.9883 24.25C15.8164 24.125 15.668 23.9766 15.543 23.8047C15.4258 23.6328 15.3398 23.4375 15.2852 23.2188C15.2383 22.9922 15.2422 22.7422 15.2969 22.4688C15.3516 22.1953 15.4492 21.9648 15.5898 21.7773C15.7305 21.5898 15.8984 21.4375 16.0938 21.3203C16.2891 21.2031 16.5078 21.1133 16.75 21.0508C16.9922 20.9883 17.2422 20.9453 17.5 20.9219C17.7031 20.9141 17.9062 20.9258 18.1094 20.957C18.2812 20.9883 18.4609 21.0469 18.6484 21.1328C18.8359 21.2109 18.9961 21.332 19.1289 21.4961C19.1211 21.082 19.1055 20.7539 19.082 20.5117C19.0664 20.2617 19.0508 20.0703 19.0352 19.9375C19.0039 19.7812 18.9766 19.6719 18.9531 19.6094C18.9141 19.5547 18.8711 19.4922 18.8242 19.4219C18.7852 19.3516 18.7344 19.2891 18.6719 19.2344C18.6094 19.1719 18.5312 19.1211 18.4375 19.082C18.3438 19.043 18.2344 19.0273 18.1094 19.0352C17.9766 19.043 17.8711 19.0781 17.793 19.1406C17.7148 19.2031 17.6523 19.2773 17.6055 19.3633C17.5664 19.4414 17.543 19.5273 17.5352 19.6211C17.5273 19.7148 17.5312 19.7969 17.5469 19.8672C17.5625 19.9141 17.5859 19.9648 17.6172 20.0195C17.6484 20.0664 17.6914 20.1172 17.7461 20.1719C17.8008 20.2266 17.875 20.2734 17.9688 20.3125C17.7891 20.3359 17.6289 20.3555 17.4883 20.3711C17.3477 20.3789 17.2266 20.3906 17.125 20.4062C17.0078 20.4219 16.9062 20.4336 16.8203 20.4414C16.7344 20.4492 16.6328 20.4648 16.5156 20.4883C16.4141 20.5039 16.2891 20.5234 16.1406 20.5469C15.9922 20.5703 15.8203 20.6016 15.625 20.6406C15.6719 20.5859 15.7148 20.5352 15.7539 20.4883C15.793 20.4336 15.8281 20.3867 15.8594 20.3477C15.8906 20.3008 15.9219 20.2578 15.9531 20.2188ZM17.7109 21.6133C17.5703 21.6211 17.4297 21.6562 17.2891 21.7188C17.1484 21.7734 17.0234 21.8555 16.9141 21.9648C16.8047 22.0664 16.7109 22.1875 16.6328 22.3281C16.5625 22.4609 16.5273 22.6094 16.5273 22.7734C16.5273 22.9375 16.5664 23.082 16.6445 23.207C16.7305 23.3242 16.8398 23.4219 16.9727 23.5C17.1133 23.5781 17.2617 23.625 17.418 23.6406C17.582 23.6562 17.7422 23.6406 17.8984 23.5938C18.0469 23.5391 18.1875 23.4531 18.3203 23.3359C18.4531 23.2109 18.5664 23.0781 18.6602 22.9375C18.7539 22.7891 18.8203 22.6445 18.8594 22.5039C18.8984 22.3555 18.9023 22.2344 18.8711 22.1406C18.8086 21.9375 18.668 21.7969 18.4492 21.7188C18.2305 21.6328 17.9844 21.5977 17.7109 21.6133Z" fill="#F2CC04"/>
<path d="M21.8828 23.6758C21.9375 23.418 21.9766 23.1914 22 22.9961C22.0312 22.793 22.0547 22.625 22.0703 22.4922C22.0859 22.3359 22.0938 22.2031 22.0938 22.0938C22.0859 21.9609 22.0781 21.8047 22.0703 21.625C22.0703 21.4375 22.0625 21.2539 22.0469 21.0742C22.0391 20.8867 22.0273 20.7227 22.0117 20.582C21.9961 20.4336 21.9766 20.3281 21.9531 20.2656C21.9219 20.2031 21.8789 20.1367 21.8242 20.0664C21.7148 19.9336 21.5547 19.8047 21.3438 19.6797C21.5234 19.6406 21.6758 19.6094 21.8008 19.5859C21.9336 19.5547 22.043 19.5273 22.1289 19.5039C22.2227 19.4727 22.3047 19.4453 22.375 19.4219C22.4375 19.3984 22.5117 19.375 22.5977 19.3516C22.668 19.3359 22.7539 19.3164 22.8555 19.293C22.957 19.2695 23.0742 19.2422 23.207 19.2109L23.1719 20.2773C23.4219 19.9805 23.6758 19.7578 23.9336 19.6094C24.1914 19.4609 24.4336 19.3555 24.6602 19.293C24.918 19.2148 25.1719 19.1758 25.4219 19.1758C25.7344 19.1914 26.0234 19.2422 26.2891 19.3281C26.5625 19.4141 26.7969 19.5156 26.9922 19.6328C27.1953 19.7422 27.3594 19.8594 27.4844 19.9844C27.6094 20.1094 27.6836 20.2188 27.707 20.3125C27.8008 20.6172 27.8242 20.8984 27.7773 21.1562C27.7305 21.4062 27.668 21.6523 27.5898 21.8945C27.5195 22.1289 27.457 22.3633 27.4023 22.5977C27.3555 22.832 27.375 23.0859 27.4609 23.3594C27.4922 23.4297 27.5234 23.5 27.5547 23.5703C27.5859 23.6328 27.625 23.6953 27.6719 23.7578C27.7188 23.8203 27.7734 23.8711 27.8359 23.9102C27.75 23.9023 27.6641 23.8984 27.5781 23.8984C27.4922 23.8906 27.4141 23.8828 27.3438 23.875C27.2578 23.8672 27.1797 23.8594 27.1094 23.8516C27.0312 23.8438 26.9258 23.8398 26.793 23.8398C26.5664 23.8398 26.2148 23.8516 25.7383 23.875C25.8086 23.7109 25.8633 23.5742 25.9023 23.4648C25.9492 23.3477 25.9883 23.2539 26.0195 23.1836C26.0508 23.0977 26.0742 23.0312 26.0898 22.9844C26.1836 22.7578 26.2383 22.5 26.2539 22.2109C26.2773 21.9219 26.2578 21.6289 26.1953 21.332C26.1719 21.2305 26.1328 21.1094 26.0781 20.9688C26.0234 20.8281 25.9492 20.6914 25.8555 20.5586C25.7695 20.4258 25.6641 20.3125 25.5391 20.2188C25.4219 20.125 25.2852 20.0703 25.1289 20.0547C24.9727 20.0391 24.7969 20.0781 24.6016 20.1719C24.4141 20.2656 24.2109 20.4375 23.9922 20.6875C23.8281 20.8984 23.6992 21.1562 23.6055 21.4609C23.5195 21.7188 23.4609 22.043 23.4297 22.4336C23.3984 22.8164 23.4453 23.2656 23.5703 23.7812C23.4609 23.7656 23.3594 23.7578 23.2656 23.7578C23.1719 23.75 23.0938 23.7422 23.0312 23.7344C22.9531 23.7266 22.8828 23.7188 22.8203 23.7109C22.75 23.7109 22.6719 23.707 22.5859 23.6992C22.5078 23.6992 22.4102 23.6992 22.293 23.6992C22.1758 23.6914 22.0391 23.6836 21.8828 23.6758Z" fill="#F2CC04"/>
<path d="M35.1016 20.8047C35.0078 20.7891 34.8906 20.7773 34.75 20.7695C34.6172 20.7617 34.4883 20.7578 34.3633 20.7578C34.2227 20.7578 34.0742 20.7617 33.918 20.7695C33.7539 20.7773 33.5898 20.7852 33.4258 20.793C33.2852 20.8008 33.125 20.8125 32.9453 20.8281C32.7734 20.8359 32.6055 20.8477 32.4414 20.8633C32.5039 20.832 32.5586 20.7891 32.6055 20.7344C32.6602 20.6797 32.707 20.625 32.7461 20.5703C32.7852 20.5078 32.8203 20.4414 32.8516 20.3711C32.8906 20.2539 32.8867 20.1133 32.8398 19.9492C32.793 19.7773 32.707 19.6211 32.582 19.4805C32.4648 19.3398 32.3125 19.2305 32.125 19.1523C31.9453 19.0664 31.7461 19.0469 31.5273 19.0938C31.293 19.1484 31.082 19.2305 30.8945 19.3398C30.7148 19.4492 30.5625 19.6016 30.4375 19.7969C30.3203 19.9844 30.2344 20.2188 30.1797 20.5C30.1328 20.7734 30.1211 21.1016 30.1445 21.4844C30.1758 21.9609 30.2539 22.3398 30.3789 22.6211C30.5039 22.9023 30.6562 23.1133 30.8359 23.2539C31.0156 23.3945 31.2109 23.4805 31.4219 23.5117C31.6406 23.5352 31.8555 23.5352 32.0664 23.5117C32.2148 23.4805 32.3516 23.4141 32.4766 23.3125C32.5781 23.2266 32.6719 23.1016 32.7578 22.9375C32.8438 22.7734 32.8828 22.5469 32.875 22.2578L34.3047 22.1992C34.1406 22.6602 33.9414 23.0273 33.707 23.3008C33.4727 23.5664 33.2461 23.7734 33.0273 23.9219C32.7695 24.0938 32.5117 24.2109 32.2539 24.2734C31.9336 24.3281 31.6484 24.3516 31.3984 24.3438C31.1484 24.3281 30.9219 24.2891 30.7188 24.2266C30.5156 24.1641 30.3281 24.0859 30.1562 23.9922C29.9844 23.8984 29.8203 23.7969 29.6641 23.6875C29.5625 23.6172 29.4492 23.5 29.3242 23.3359C29.1992 23.1719 29.082 22.9766 28.9727 22.75C28.8633 22.5156 28.7734 22.2578 28.7031 21.9766C28.6328 21.6953 28.6055 21.4062 28.6211 21.1094C28.6367 20.8047 28.707 20.5 28.832 20.1953C28.957 19.8906 29.1562 19.5977 29.4297 19.3164C29.8438 18.8945 30.2852 18.6211 30.7539 18.4961C31.2305 18.3633 31.6797 18.3281 32.1016 18.3906C32.5234 18.4453 32.8984 18.5664 33.2266 18.7539C33.5547 18.9414 33.7852 19.1445 33.918 19.3633C34.0508 19.582 34.1484 19.75 34.2109 19.8672C34.2812 19.9766 34.332 20.0625 34.3633 20.125C34.4023 20.1797 34.4336 20.2227 34.457 20.2539C34.4883 20.2773 34.5312 20.3125 34.5859 20.3594C34.625 20.3984 34.6719 20.4414 34.7266 20.4883C34.7734 20.5273 34.8281 20.5742 34.8906 20.6289C34.9531 20.6836 35.0234 20.7422 35.1016 20.8047Z" fill="#F2CC04"/>
<path d="M34.8672 16.082C35.0469 16.1133 35.2109 16.1367 35.3594 16.1523C35.5078 16.1602 35.6328 16.168 35.7344 16.1758C35.8516 16.1836 35.9531 16.1875 36.0391 16.1875C36.1562 16.1797 36.293 16.168 36.4492 16.1523C36.582 16.1367 36.7422 16.1172 36.9297 16.0938C37.125 16.0703 37.3477 16.0391 37.5977 16C37.4805 16.0625 37.3828 16.125 37.3047 16.1875C37.2266 16.2422 37.1641 16.3008 37.1172 16.3633C37.0625 16.4336 37.0195 16.5 36.9883 16.5625C36.9492 16.6641 36.9062 16.875 36.8594 17.1953C36.8125 17.4688 36.7539 17.875 36.6836 18.4141C36.6211 18.9531 36.5391 19.6836 36.4375 20.6055C36.7188 20.3242 36.9844 20.1133 37.2344 19.9727C37.4922 19.8242 37.7188 19.7188 37.9141 19.6562C38.1406 19.5859 38.3516 19.5508 38.5469 19.5508C38.7891 19.5742 39.0352 19.6523 39.2852 19.7852C39.543 19.9102 39.7812 20.0586 40 20.2305C40.2266 20.4023 40.4219 20.5859 40.5859 20.7812C40.7578 20.9766 40.8789 21.1484 40.9492 21.2969C40.9961 21.3984 41.0195 21.5312 41.0195 21.6953C41.0195 21.8516 41.0039 22.0234 40.9727 22.2109C40.9414 22.3984 40.8984 22.5898 40.8438 22.7852C40.7891 22.9805 40.7344 23.1641 40.6797 23.3359C40.6328 23.5078 40.5898 23.6602 40.5508 23.793C40.5117 23.918 40.4883 24.0078 40.4805 24.0625C40.4648 24.1797 40.4727 24.293 40.5039 24.4023C40.5273 24.4961 40.5742 24.5977 40.6445 24.707C40.7148 24.8086 40.8203 24.8945 40.9609 24.9648C40.8516 24.9492 40.7344 24.9375 40.6094 24.9297C40.4922 24.9141 40.3789 24.9023 40.2695 24.8945C40.1445 24.8867 40.0195 24.8828 39.8945 24.8828H39.4727C39.3398 24.8828 39.1875 24.8867 39.0156 24.8945C38.8438 24.8945 38.6562 24.8984 38.4531 24.9062C38.5625 24.8672 38.6562 24.8164 38.7344 24.7539C38.8125 24.6836 38.8789 24.6172 38.9336 24.5547C38.9961 24.4844 39.0508 24.4102 39.0977 24.332C39.1289 24.2695 39.168 24.1523 39.2148 23.9805C39.2617 23.8008 39.3047 23.5977 39.3438 23.3711C39.3828 23.1367 39.4102 22.8906 39.4258 22.6328C39.4492 22.375 39.4531 22.1289 39.4375 21.8945C39.4297 21.6523 39.3945 21.4375 39.332 21.25C39.2773 21.0625 39.1914 20.9258 39.0742 20.8398C38.7227 20.5742 38.4023 20.4453 38.1133 20.4531C37.832 20.4531 37.5625 20.5664 37.3047 20.793C37.2109 20.8789 37.1211 20.9648 37.0352 21.0508C36.957 21.1289 36.8711 21.2227 36.7773 21.332C36.6836 21.4336 36.5977 21.5391 36.5195 21.6484C36.5195 21.7656 36.5234 21.8945 36.5312 22.0352C36.5391 22.1758 36.5469 22.3125 36.5547 22.4453C36.5625 22.5938 36.5742 22.7422 36.5898 22.8906C36.6055 23.1172 36.6289 23.3398 36.6602 23.5586C36.6836 23.7461 36.7148 23.9531 36.7539 24.1797C36.793 24.3984 36.8438 24.5977 36.9062 24.7773C36.8047 24.7617 36.6992 24.7578 36.5898 24.7656C36.4805 24.7656 36.375 24.7656 36.2734 24.7656C36.1562 24.7734 36.043 24.7773 35.9336 24.7773C35.832 24.7852 35.7266 24.7969 35.6172 24.8125C35.5234 24.8281 35.4219 24.8438 35.3125 24.8594C35.2031 24.8672 35.0977 24.8828 34.9961 24.9062C35.0898 24.7266 35.168 24.5508 35.2305 24.3789C35.293 24.1992 35.3438 24.043 35.3828 23.9102C35.4297 23.7539 35.4688 23.6016 35.5 23.4531C35.5234 23.3359 35.5391 23.1133 35.5469 22.7852C35.5625 22.4492 35.5742 22.0664 35.582 21.6367C35.5898 21.1992 35.5938 20.7383 35.5938 20.2539C35.5938 19.7695 35.5898 19.3086 35.582 18.8711C35.5742 18.4336 35.5586 18.0508 35.5352 17.7227C35.5195 17.3945 35.5 17.168 35.4766 17.043C35.4453 16.918 35.4023 16.793 35.3477 16.668C35.3008 16.5586 35.2383 16.4531 35.1602 16.3516C35.082 16.2422 34.9844 16.1523 34.8672 16.082Z" fill="#F2CC04"/>
<path d="M44.7461 19.7148C44.9492 19.7148 45.1602 19.7539 45.3789 19.832C45.5977 19.9023 45.8086 19.9961 46.0117 20.1133C46.2148 20.2227 46.3984 20.3438 46.5625 20.4766C46.7344 20.6016 46.875 20.7227 46.9844 20.8398C47.1797 21.0508 47.3125 21.3359 47.3828 21.6953C47.4609 22.0469 47.4766 22.4102 47.4297 22.7852C47.3828 23.1523 47.2734 23.5 47.1016 23.8281C46.9297 24.1562 46.6914 24.3984 46.3867 24.5547C46.168 24.6641 45.9531 24.75 45.7422 24.8125C45.5312 24.875 45.3281 24.9219 45.1328 24.9531C44.9375 24.9844 44.7539 25 44.582 25C44.4102 25 44.2617 24.9961 44.1367 24.9883C43.9023 24.9727 43.6562 24.8906 43.3984 24.7422C43.1484 24.5938 42.9102 24.4102 42.6836 24.1914C42.4648 23.9727 42.2773 23.7344 42.1211 23.4766C41.9648 23.2109 41.8711 22.9609 41.8398 22.7266C41.793 22.4062 41.7852 22.0703 41.8164 21.7188C41.8477 21.3672 41.9609 21.043 42.1562 20.7461C42.3594 20.4492 42.6641 20.2031 43.0703 20.0078C43.4844 19.8125 44.043 19.7148 44.7461 19.7148ZM44.3594 24.2617C44.4453 24.2773 44.5625 24.2578 44.7109 24.2031C44.8594 24.1406 45.0039 24.043 45.1445 23.9102C45.293 23.7773 45.4219 23.6094 45.5312 23.4062C45.6484 23.1953 45.7188 22.9414 45.7422 22.6445C45.7656 22.3555 45.7656 22.0898 45.7422 21.8477C45.7266 21.6055 45.6914 21.3945 45.6367 21.2148C45.582 21.0273 45.5195 20.875 45.4492 20.7578C45.3789 20.6406 45.3047 20.5586 45.2266 20.5117C45.0938 20.4414 44.9336 20.3867 44.7461 20.3477C44.5586 20.3008 44.3984 20.3086 44.2656 20.3711C44.2031 20.4023 44.125 20.4688 44.0312 20.5703C43.9375 20.6719 43.8438 20.8008 43.75 20.957C43.6562 21.1055 43.5703 21.2773 43.4922 21.4727C43.4219 21.668 43.3711 21.8711 43.3398 22.082C43.3086 22.293 43.3008 22.5195 43.3164 22.7617C43.3398 23.0039 43.3906 23.2344 43.4688 23.4531C43.5469 23.6641 43.6562 23.8477 43.7969 24.0039C43.9453 24.1523 44.1328 24.2383 44.3594 24.2617Z" fill="#F2CC04"/>
</g>
<g id="Pancho">
<path d="M7 28.5742C7.29688 28.6445 7.5625 28.6992 7.79688 28.7383C8.03906 28.7695 8.24219 28.793 8.40625 28.8086C8.60156 28.832 8.77344 28.8398 8.92188 28.832C9.10938 28.8242 9.34375 28.7969 9.625 28.75C9.90625 28.7031 10.2031 28.6562 10.5156 28.6094C10.8281 28.5625 11.1367 28.5234 11.4414 28.4922C11.7461 28.4609 12.0117 28.457 12.2383 28.4805C12.4648 28.5039 12.7031 28.5586 12.9531 28.6445C13.2031 28.7227 13.4375 28.832 13.6562 28.9727C13.875 29.1055 14.0625 29.2695 14.2188 29.4648C14.3828 29.6602 14.4844 29.8867 14.5234 30.1445C14.5625 30.3945 14.5391 30.6641 14.4531 30.9531C14.3672 31.2344 14.2305 31.5117 14.043 31.7852C13.8555 32.0508 13.6211 32.2969 13.3398 32.5234C13.0586 32.75 12.7461 32.9336 12.4023 33.0742C12.1289 33.1758 11.832 33.2539 11.5117 33.3086C11.2383 33.3555 10.918 33.3867 10.5508 33.4023C10.1914 33.4102 9.80859 33.3711 9.40234 33.2852C9.34766 33.5117 9.31641 33.7227 9.30859 33.918C9.30859 34.1055 9.31641 34.2734 9.33203 34.4219C9.35547 34.5938 9.38672 34.75 9.42578 34.8906C9.47266 35.0312 9.53125 35.1953 9.60156 35.3828C9.66406 35.5391 9.73438 35.7305 9.8125 35.957C9.89844 36.1758 10 36.4219 10.1172 36.6953C9.97656 36.6953 9.83984 36.6992 9.70703 36.707C9.57422 36.707 9.45312 36.7109 9.34375 36.7188C9.21875 36.7266 9.10156 36.7344 8.99219 36.7422C8.86719 36.75 8.72656 36.7656 8.57031 36.7891C8.4375 36.8047 8.26953 36.8281 8.06641 36.8594C7.87109 36.8906 7.64844 36.9297 7.39844 36.9766C7.5625 36.7422 7.69141 36.5273 7.78516 36.332C7.88672 36.1289 7.96094 35.9531 8.00781 35.8047C8.0625 35.6328 8.09766 35.4766 8.11328 35.3359C8.12109 35.2188 8.12109 35.0117 8.11328 34.7148C8.11328 34.418 8.10938 34.0742 8.10156 33.6836C8.09375 33.293 8.08203 32.8828 8.06641 32.4531C8.05078 32.0234 8.03125 31.6211 8.00781 31.2461C7.98438 30.8633 7.95703 30.5352 7.92578 30.2617C7.90234 29.9883 7.87891 29.8086 7.85547 29.7227C7.82422 29.6211 7.76953 29.5117 7.69141 29.3945C7.62891 29.293 7.53906 29.1758 7.42188 29.043C7.3125 28.9023 7.17188 28.7461 7 28.5742ZM9.42578 30.8828C9.41797 30.9609 9.41406 31.043 9.41406 31.1289C9.41406 31.293 9.42578 31.5039 9.44922 31.7617C9.50391 31.8945 9.57031 32.0039 9.64844 32.0898C9.73438 32.1758 9.82422 32.2422 9.91797 32.2891C10.0195 32.3359 10.1211 32.3672 10.2227 32.3828C10.3242 32.3984 10.4258 32.4062 10.5273 32.4062C10.7617 32.3984 11.0078 32.3438 11.2656 32.2422C11.6094 32.0938 11.8516 31.8828 11.9922 31.6094C12.1328 31.3359 12.207 31.0547 12.2148 30.7656C12.2227 30.4766 12.1719 30.2109 12.0625 29.9688C11.9609 29.7266 11.8359 29.5625 11.6875 29.4766C11.5625 29.4219 11.4023 29.3984 11.207 29.4062C11.0352 29.4141 10.8203 29.457 10.5625 29.5352C10.3047 29.6133 9.98828 29.7539 9.61328 29.957C9.57422 30.0977 9.54297 30.2227 9.51953 30.332C9.49609 30.4414 9.47656 30.5391 9.46094 30.625C9.44531 30.7188 9.43359 30.8047 9.42578 30.8828Z" fill="#F2CC04"/>
<path d="M15.2383 32.2188C15.2773 32.1719 15.3008 32.0859 15.3086 31.9609C15.3242 31.8281 15.3555 31.6797 15.4023 31.5156C15.457 31.3516 15.5469 31.1797 15.6719 31C15.7969 30.8203 16 30.6523 16.2812 30.4961C16.5547 30.3398 16.8203 30.2461 17.0781 30.2148C17.3359 30.1836 17.582 30.1953 17.8164 30.25C18.0508 30.3047 18.2695 30.3906 18.4727 30.5078C18.6836 30.625 18.875 30.7539 19.0469 30.8945C19.1641 30.9883 19.2578 31.125 19.3281 31.3047C19.3984 31.4766 19.4531 31.6719 19.4922 31.8906C19.5312 32.1094 19.5586 32.3398 19.5742 32.582C19.5977 32.8164 19.6133 33.0469 19.6211 33.2734C19.6289 33.4922 19.6328 33.6953 19.6328 33.8828C19.6406 34.0625 19.6562 34.2109 19.6797 34.3281C19.7109 34.5 19.7656 34.6484 19.8438 34.7734C19.9219 34.8906 20.0078 34.9922 20.1016 35.0781C20.1953 35.1562 20.2891 35.2188 20.3828 35.2656C20.4766 35.3125 20.5586 35.3477 20.6289 35.3711C20.6758 35.3945 20.7188 35.4102 20.7578 35.418C20.8359 35.4492 20.8906 35.4492 20.9219 35.418C20.875 35.5273 20.832 35.6211 20.793 35.6992C20.7539 35.7773 20.7227 35.8438 20.6992 35.8984C20.668 35.9609 20.6406 36.0117 20.6172 36.0508C20.5938 36.0977 20.5664 36.1406 20.5352 36.1797C20.5117 36.2188 20.4805 36.2617 20.4414 36.3086C20.4023 36.3555 20.3633 36.4062 20.3242 36.4609C20.2227 36.4219 20.125 36.375 20.0312 36.3203C19.9453 36.2656 19.8672 36.2148 19.7969 36.168C19.7109 36.1133 19.6328 36.0586 19.5625 36.0039C19.4922 35.9492 19.4258 35.8867 19.3633 35.8164C19.3086 35.7539 19.25 35.6875 19.1875 35.6172C19.1328 35.5469 19.0859 35.4688 19.0469 35.3828C19 35.4844 18.8867 35.6289 18.707 35.8164C18.5352 36.0039 18.3086 36.1758 18.0273 36.332C17.7461 36.4805 17.418 36.5859 17.043 36.6484C16.6758 36.7109 16.2695 36.668 15.8242 36.5195C15.6289 36.457 15.4453 36.3672 15.2734 36.25C15.1016 36.125 14.9531 35.9766 14.8281 35.8047C14.7109 35.6328 14.625 35.4375 14.5703 35.2188C14.5234 34.9922 14.5273 34.7422 14.582 34.4688C14.6367 34.1953 14.7344 33.9648 14.875 33.7773C15.0156 33.5898 15.1836 33.4375 15.3789 33.3203C15.5742 33.2031 15.793 33.1133 16.0352 33.0508C16.2773 32.9883 16.5273 32.9453 16.7852 32.9219C16.9883 32.9141 17.1914 32.9258 17.3945 32.957C17.5664 32.9883 17.7461 33.0469 17.9336 33.1328C18.1211 33.2109 18.2812 33.332 18.4141 33.4961C18.4062 33.082 18.3906 32.7539 18.3672 32.5117C18.3516 32.2617 18.3359 32.0703 18.3203 31.9375C18.2891 31.7812 18.2617 31.6719 18.2383 31.6094C18.1992 31.5547 18.1562 31.4922 18.1094 31.4219C18.0703 31.3516 18.0195 31.2891 17.957 31.2344C17.8945 31.1719 17.8164 31.1211 17.7227 31.082C17.6289 31.043 17.5195 31.0273 17.3945 31.0352C17.2617 31.043 17.1562 31.0781 17.0781 31.1406C17 31.2031 16.9375 31.2773 16.8906 31.3633C16.8516 31.4414 16.8281 31.5273 16.8203 31.6211C16.8125 31.7148 16.8164 31.7969 16.832 31.8672C16.8477 31.9141 16.8711 31.9648 16.9023 32.0195C16.9336 32.0664 16.9766 32.1172 17.0312 32.1719C17.0859 32.2266 17.1602 32.2734 17.2539 32.3125C17.0742 32.3359 16.9141 32.3555 16.7734 32.3711C16.6328 32.3789 16.5117 32.3906 16.4102 32.4062C16.293 32.4219 16.1914 32.4336 16.1055 32.4414C16.0195 32.4492 15.918 32.4648 15.8008 32.4883C15.6992 32.5039 15.5742 32.5234 15.4258 32.5469C15.2773 32.5703 15.1055 32.6016 14.9102 32.6406C14.957 32.5859 15 32.5352 15.0391 32.4883C15.0781 32.4336 15.1133 32.3867 15.1445 32.3477C15.1758 32.3008 15.207 32.2578 15.2383 32.2188ZM16.9961 33.6133C16.8555 33.6211 16.7148 33.6562 16.5742 33.7188C16.4336 33.7734 16.3086 33.8555 16.1992 33.9648C16.0898 34.0664 15.9961 34.1875 15.918 34.3281C15.8477 34.4609 15.8125 34.6094 15.8125 34.7734C15.8125 34.9375 15.8516 35.082 15.9297 35.207C16.0156 35.3242 16.125 35.4219 16.2578 35.5C16.3984 35.5781 16.5469 35.625 16.7031 35.6406C16.8672 35.6562 17.0273 35.6406 17.1836 35.5938C17.332 35.5391 17.4727 35.4531 17.6055 35.3359C17.7383 35.2109 17.8516 35.0781 17.9453 34.9375C18.0391 34.7891 18.1055 34.6445 18.1445 34.5039C18.1836 34.3555 18.1875 34.2344 18.1562 34.1406C18.0938 33.9375 17.9531 33.7969 17.7344 33.7188C17.5156 33.6328 17.2695 33.5977 16.9961 33.6133Z" fill="#F2CC04"/>
<path d="M21.168 35.6758C21.2227 35.418 21.2617 35.1914 21.2852 34.9961C21.3164 34.793 21.3398 34.625 21.3555 34.4922C21.3711 34.3359 21.3789 34.2031 21.3789 34.0938C21.3711 33.9609 21.3633 33.8047 21.3555 33.625C21.3555 33.4375 21.3477 33.2539 21.332 33.0742C21.3242 32.8867 21.3125 32.7227 21.2969 32.582C21.2812 32.4336 21.2617 32.3281 21.2383 32.2656C21.207 32.2031 21.1641 32.1367 21.1094 32.0664C21 31.9336 20.8398 31.8047 20.6289 31.6797C20.8086 31.6406 20.9609 31.6094 21.0859 31.5859C21.2188 31.5547 21.3281 31.5273 21.4141 31.5039C21.5078 31.4727 21.5898 31.4453 21.6602 31.4219C21.7227 31.3984 21.7969 31.375 21.8828 31.3516C21.9531 31.3359 22.0391 31.3164 22.1406 31.293C22.2422 31.2695 22.3594 31.2422 22.4922 31.2109L22.457 32.2773C22.707 31.9805 22.9609 31.7578 23.2188 31.6094C23.4766 31.4609 23.7188 31.3555 23.9453 31.293C24.2031 31.2148 24.457 31.1758 24.707 31.1758C25.0195 31.1914 25.3086 31.2422 25.5742 31.3281C25.8477 31.4141 26.082 31.5156 26.2773 31.6328C26.4805 31.7422 26.6445 31.8594 26.7695 31.9844C26.8945 32.1094 26.9688 32.2188 26.9922 32.3125C27.0859 32.6172 27.1094 32.8984 27.0625 33.1562C27.0156 33.4062 26.9531 33.6523 26.875 33.8945C26.8047 34.1289 26.7422 34.3633 26.6875 34.5977C26.6406 34.832 26.6602 35.0859 26.7461 35.3594C26.7773 35.4297 26.8086 35.5 26.8398 35.5703C26.8711 35.6328 26.9102 35.6953 26.957 35.7578C27.0039 35.8203 27.0586 35.8711 27.1211 35.9102C27.0352 35.9023 26.9492 35.8984 26.8633 35.8984C26.7773 35.8906 26.6992 35.8828 26.6289 35.875C26.543 35.8672 26.4648 35.8594 26.3945 35.8516C26.3164 35.8438 26.2109 35.8398 26.0781 35.8398C25.8516 35.8398 25.5 35.8516 25.0234 35.875C25.0938 35.7109 25.1484 35.5742 25.1875 35.4648C25.2344 35.3477 25.2734 35.2539 25.3047 35.1836C25.3359 35.0977 25.3594 35.0312 25.375 34.9844C25.4688 34.7578 25.5234 34.5 25.5391 34.2109C25.5625 33.9219 25.543 33.6289 25.4805 33.332C25.457 33.2305 25.418 33.1094 25.3633 32.9688C25.3086 32.8281 25.2344 32.6914 25.1406 32.5586C25.0547 32.4258 24.9492 32.3125 24.8242 32.2188C24.707 32.125 24.5703 32.0703 24.4141 32.0547C24.2578 32.0391 24.082 32.0781 23.8867 32.1719C23.6992 32.2656 23.4961 32.4375 23.2773 32.6875C23.1133 32.8984 22.9844 33.1562 22.8906 33.4609C22.8047 33.7188 22.7461 34.043 22.7148 34.4336C22.6836 34.8164 22.7305 35.2656 22.8555 35.7812C22.7461 35.7656 22.6445 35.7578 22.5508 35.7578C22.457 35.75 22.3789 35.7422 22.3164 35.7344C22.2383 35.7266 22.168 35.7188 22.1055 35.7109C22.0352 35.7109 21.957 35.707 21.8711 35.6992C21.793 35.6992 21.6953 35.6992 21.5781 35.6992C21.4609 35.6914 21.3242 35.6836 21.168 35.6758Z" fill="#F2CC04"/>
<path d="M34.3867 32.8047C34.293 32.7891 34.1758 32.7773 34.0352 32.7695C33.9023 32.7617 33.7734 32.7578 33.6484 32.7578C33.5078 32.7578 33.3594 32.7617 33.2031 32.7695C33.0391 32.7773 32.875 32.7852 32.7109 32.793C32.5703 32.8008 32.4102 32.8125 32.2305 32.8281C32.0586 32.8359 31.8906 32.8477 31.7266 32.8633C31.7891 32.832 31.8438 32.7891 31.8906 32.7344C31.9453 32.6797 31.9922 32.625 32.0312 32.5703C32.0703 32.5078 32.1055 32.4414 32.1367 32.3711C32.1758 32.2539 32.1719 32.1133 32.125 31.9492C32.0781 31.7773 31.9922 31.6211 31.8672 31.4805C31.75 31.3398 31.5977 31.2305 31.4102 31.1523C31.2305 31.0664 31.0312 31.0469 30.8125 31.0938C30.5781 31.1484 30.3672 31.2305 30.1797 31.3398C30 31.4492 29.8477 31.6016 29.7227 31.7969C29.6055 31.9844 29.5195 32.2188 29.4648 32.5C29.418 32.7734 29.4062 33.1016 29.4297 33.4844C29.4609 33.9609 29.5391 34.3398 29.6641 34.6211C29.7891 34.9023 29.9414 35.1133 30.1211 35.2539C30.3008 35.3945 30.4961 35.4805 30.707 35.5117C30.9258 35.5352 31.1406 35.5352 31.3516 35.5117C31.5 35.4805 31.6367 35.4141 31.7617 35.3125C31.8633 35.2266 31.957 35.1016 32.043 34.9375C32.1289 34.7734 32.168 34.5469 32.1602 34.2578L33.5898 34.1992C33.4258 34.6602 33.2266 35.0273 32.9922 35.3008C32.7578 35.5664 32.5312 35.7734 32.3125 35.9219C32.0547 36.0938 31.7969 36.2109 31.5391 36.2734C31.2188 36.3281 30.9336 36.3516 30.6836 36.3438C30.4336 36.3281 30.207 36.2891 30.0039 36.2266C29.8008 36.1641 29.6133 36.0859 29.4414 35.9922C29.2695 35.8984 29.1055 35.7969 28.9492 35.6875C28.8477 35.6172 28.7344 35.5 28.6094 35.3359C28.4844 35.1719 28.3672 34.9766 28.2578 34.75C28.1484 34.5156 28.0586 34.2578 27.9883 33.9766C27.918 33.6953 27.8906 33.4062 27.9062 33.1094C27.9219 32.8047 27.9922 32.5 28.1172 32.1953C28.2422 31.8906 28.4414 31.5977 28.7148 31.3164C29.1289 30.8945 29.5703 30.6211 30.0391 30.4961C30.5156 30.3633 30.9648 30.3281 31.3867 30.3906C31.8086 30.4453 32.1836 30.5664 32.5117 30.7539C32.8398 30.9414 33.0703 31.1445 33.2031 31.3633C33.3359 31.582 33.4336 31.75 33.4961 31.8672C33.5664 31.9766 33.6172 32.0625 33.6484 32.125C33.6875 32.1797 33.7188 32.2227 33.7422 32.2539C33.7734 32.2773 33.8164 32.3125 33.8711 32.3594C33.9102 32.3984 33.957 32.4414 34.0117 32.4883C34.0586 32.5273 34.1133 32.5742 34.1758 32.6289C34.2383 32.6836 34.3086 32.7422 34.3867 32.8047Z" fill="#F2CC04"/>
<path d="M34.1523 28.082C34.332 28.1133 34.4961 28.1367 34.6445 28.1523C34.793 28.1602 34.918 28.168 35.0195 28.1758C35.1367 28.1836 35.2383 28.1875 35.3242 28.1875C35.4414 28.1797 35.5781 28.168 35.7344 28.1523C35.8672 28.1367 36.0273 28.1172 36.2148 28.0938C36.4102 28.0703 36.6328 28.0391 36.8828 28C36.7656 28.0625 36.668 28.125 36.5898 28.1875C36.5117 28.2422 36.4492 28.3008 36.4023 28.3633C36.3477 28.4336 36.3047 28.5 36.2734 28.5625C36.2344 28.6641 36.1914 28.875 36.1445 29.1953C36.0977 29.4688 36.0391 29.875 35.9688 30.4141C35.9062 30.9531 35.8242 31.6836 35.7227 32.6055C36.0039 32.3242 36.2695 32.1133 36.5195 31.9727C36.7773 31.8242 37.0039 31.7188 37.1992 31.6562C37.4258 31.5859 37.6367 31.5508 37.832 31.5508C38.0742 31.5742 38.3203 31.6523 38.5703 31.7852C38.8281 31.9102 39.0664 32.0586 39.2852 32.2305C39.5117 32.4023 39.707 32.5859 39.8711 32.7812C40.043 32.9766 40.1641 33.1484 40.2344 33.2969C40.2812 33.3984 40.3047 33.5312 40.3047 33.6953C40.3047 33.8516 40.2891 34.0234 40.2578 34.2109C40.2266 34.3984 40.1836 34.5898 40.1289 34.7852C40.0742 34.9805 40.0195 35.1641 39.9648 35.3359C39.918 35.5078 39.875 35.6602 39.8359 35.793C39.7969 35.918 39.7734 36.0078 39.7656 36.0625C39.75 36.1797 39.7578 36.293 39.7891 36.4023C39.8125 36.4961 39.8594 36.5977 39.9297 36.707C40 36.8086 40.1055 36.8945 40.2461 36.9648C40.1367 36.9492 40.0195 36.9375 39.8945 36.9297C39.7773 36.9141 39.6641 36.9023 39.5547 36.8945C39.4297 36.8867 39.3047 36.8828 39.1797 36.8828H38.7578C38.625 36.8828 38.4727 36.8867 38.3008 36.8945C38.1289 36.8945 37.9414 36.8984 37.7383 36.9062C37.8477 36.8672 37.9414 36.8164 38.0195 36.7539C38.0977 36.6836 38.1641 36.6172 38.2188 36.5547C38.2812 36.4844 38.3359 36.4102 38.3828 36.332C38.4141 36.2695 38.4531 36.1523 38.5 35.9805C38.5469 35.8008 38.5898 35.5977 38.6289 35.3711C38.668 35.1367 38.6953 34.8906 38.7109 34.6328C38.7344 34.375 38.7383 34.1289 38.7227 33.8945C38.7148 33.6523 38.6797 33.4375 38.6172 33.25C38.5625 33.0625 38.4766 32.9258 38.3594 32.8398C38.0078 32.5742 37.6875 32.4453 37.3984 32.4531C37.1172 32.4531 36.8477 32.5664 36.5898 32.793C36.4961 32.8789 36.4062 32.9648 36.3203 33.0508C36.2422 33.1289 36.1562 33.2227 36.0625 33.332C35.9688 33.4336 35.8828 33.5391 35.8047 33.6484C35.8047 33.7656 35.8086 33.8945 35.8164 34.0352C35.8242 34.1758 35.832 34.3125 35.8398 34.4453C35.8477 34.5938 35.8594 34.7422 35.875 34.8906C35.8906 35.1172 35.9141 35.3398 35.9453 35.5586C35.9688 35.7461 36 35.9531 36.0391 36.1797C36.0781 36.3984 36.1289 36.5977 36.1914 36.7773C36.0898 36.7617 35.9844 36.7578 35.875 36.7656C35.7656 36.7656 35.6602 36.7656 35.5586 36.7656C35.4414 36.7734 35.3281 36.7773 35.2188 36.7773C35.1172 36.7852 35.0117 36.7969 34.9023 36.8125C34.8086 36.8281 34.707 36.8438 34.5977 36.8594C34.4883 36.8672 34.3828 36.8828 34.2812 36.9062C34.375 36.7266 34.4531 36.5508 34.5156 36.3789C34.5781 36.1992 34.6289 36.043 34.668 35.9102C34.7148 35.7539 34.7539 35.6016 34.7852 35.4531C34.8086 35.3359 34.8242 35.1133 34.832 34.7852C34.8477 34.4492 34.8594 34.0664 34.8672 33.6367C34.875 33.1992 34.8789 32.7383 34.8789 32.2539C34.8789 31.7695 34.875 31.3086 34.8672 30.8711C34.8594 30.4336 34.8438 30.0508 34.8203 29.7227C34.8047 29.3945 34.7852 29.168 34.7617 29.043C34.7305 28.918 34.6875 28.793 34.6328 28.668C34.5859 28.5586 34.5234 28.4531 34.4453 28.3516C34.3672 28.2422 34.2695 28.1523 34.1523 28.082Z" fill="#F2CC04"/>
<path d="M44.0312 31.7148C44.2344 31.7148 44.4453 31.7539 44.6641 31.832C44.8828 31.9023 45.0938 31.9961 45.2969 32.1133C45.5 32.2227 45.6836 32.3438 45.8477 32.4766C46.0195 32.6016 46.1602 32.7227 46.2695 32.8398C46.4648 33.0508 46.5977 33.3359 46.668 33.6953C46.7461 34.0469 46.7617 34.4102 46.7148 34.7852C46.668 35.1523 46.5586 35.5 46.3867 35.8281C46.2148 36.1562 45.9766 36.3984 45.6719 36.5547C45.4531 36.6641 45.2383 36.75 45.0273 36.8125C44.8164 36.875 44.6133 36.9219 44.418 36.9531C44.2227 36.9844 44.0391 37 43.8672 37C43.6953 37 43.5469 36.9961 43.4219 36.9883C43.1875 36.9727 42.9414 36.8906 42.6836 36.7422C42.4336 36.5938 42.1953 36.4102 41.9688 36.1914C41.75 35.9727 41.5625 35.7344 41.4062 35.4766C41.25 35.2109 41.1562 34.9609 41.125 34.7266C41.0781 34.4062 41.0703 34.0703 41.1016 33.7188C41.1328 33.3672 41.2461 33.043 41.4414 32.7461C41.6445 32.4492 41.9492 32.2031 42.3555 32.0078C42.7695 31.8125 43.3281 31.7148 44.0312 31.7148ZM43.6445 36.2617C43.7305 36.2773 43.8477 36.2578 43.9961 36.2031C44.1445 36.1406 44.2891 36.043 44.4297 35.9102C44.5781 35.7773 44.707 35.6094 44.8164 35.4062C44.9336 35.1953 45.0039 34.9414 45.0273 34.6445C45.0508 34.3555 45.0508 34.0898 45.0273 33.8477C45.0117 33.6055 44.9766 33.3945 44.9219 33.2148C44.8672 33.0273 44.8047 32.875 44.7344 32.7578C44.6641 32.6406 44.5898 32.5586 44.5117 32.5117C44.3789 32.4414 44.2188 32.3867 44.0312 32.3477C43.8438 32.3008 43.6836 32.3086 43.5508 32.3711C43.4883 32.4023 43.4102 32.4688 43.3164 32.5703C43.2227 32.6719 43.1289 32.8008 43.0352 32.957C42.9414 33.1055 42.8555 33.2773 42.7773 33.4727C42.707 33.668 42.6562 33.8711 42.625 34.082C42.5938 34.293 42.5859 34.5195 42.6016 34.7617C42.625 35.0039 42.6758 35.2344 42.7539 35.4531C42.832 35.6641 42.9414 35.8477 43.082 36.0039C43.2305 36.1523 43.418 36.2383 43.6445 36.2617Z" fill="#F2CC04"/>
</g>
</g>
</svg>
