<svg width="256" height="256" viewBox="0 0 256 256" fill="none" xmlns="http://www.w3.org/2000/svg">
<path d="M128 28C108.222 28 88.8879 33.8649 72.443 44.853C55.9981 55.8412 43.1809 71.459 35.6121 89.7317C28.0433 108.004 26.063 128.111 29.9215 147.509C33.78 166.907 43.3041 184.725 57.2894 198.711C71.2746 212.696 89.0929 222.22 108.491 226.079C127.889 229.937 147.996 227.957 166.268 220.388C184.541 212.819 200.159 200.002 211.147 183.557C222.135 167.112 228 147.778 228 128C227.971 101.487 217.426 76.0688 198.679 57.3215C179.931 38.5742 154.513 28.0291 128 28ZM68.87 198.42C74.8051 187.969 83.404 179.278 93.7909 173.232C104.178 167.186 115.982 164 128 164C140.019 164 151.822 167.186 162.209 173.232C172.596 179.278 181.195 187.969 187.13 198.42C170.579 212.357 149.637 220 128 220C106.363 220 85.421 212.357 68.87 198.42ZM193.17 192.87C183.233 176.257 167.302 164.087 148.66 158.87C157.328 154.26 164.205 146.885 168.197 137.916C172.19 128.947 173.068 118.901 170.693 109.376C168.317 99.8503 162.825 91.3929 155.088 85.349C147.352 79.3051 137.817 76.022 128 76.022C118.183 76.022 108.648 79.3051 100.912 85.349C93.1755 91.3929 87.6829 99.8503 85.3075 109.376C82.9321 118.901 83.8105 128.947 87.8029 137.916C91.7953 146.885 98.6724 154.26 107.34 158.87C88.6979 164.087 72.7671 176.257 62.83 192.87C49.9965 179.991 41.267 163.597 37.7438 145.76C34.2206 127.923 36.0617 109.441 43.0346 92.6497C50.0075 75.8581 61.7996 61.5091 76.9218 51.4145C92.044 41.32 109.818 35.9326 128 35.9326C146.182 35.9326 163.956 41.32 179.078 51.4145C194.201 61.5091 205.993 75.8581 212.965 92.6497C219.938 109.441 221.779 127.923 218.256 145.76C214.733 163.597 206.004 179.991 193.17 192.87ZM128 156C120.88 156 113.92 153.889 108 149.933C102.079 145.977 97.4651 140.355 94.7404 133.777C92.0156 127.198 91.3027 119.96 92.6918 112.977C94.0808 105.993 97.5095 99.5788 102.544 94.5442C107.579 89.5095 113.993 86.0808 120.977 84.6917C127.96 83.3027 135.199 84.0156 141.777 86.7403C148.355 89.4651 153.977 94.0793 157.933 99.9995C161.889 105.92 164 112.88 164 120C164 129.548 160.207 138.705 153.456 145.456C146.705 152.207 137.548 156 128 156Z" fill="black"/>
</svg>
