<svg width="50" height="51" viewBox="0 0 50 51" fill="none" xmlns="http://www.w3.org/2000/svg">
<g id="majesticons:burger-line">
<g id="Group">
<path id="Vector" d="M31.25 32.0771L38.2895 25.0375C38.7 24.6272 39.1872 24.3018 39.7234 24.0798C40.2596 23.8578 40.8342 23.7437 41.4145 23.7438H41.6666C42.7717 23.7438 43.8315 24.1828 44.6129 24.9642C45.3943 25.7456 45.8333 26.8054 45.8333 27.9104C45.8333 29.0155 45.3943 30.0753 44.6129 30.8567C43.8315 31.6381 42.7717 32.0771 41.6666 32.0771H8.33329C7.22822 32.0771 6.16842 31.6381 5.38701 30.8567C4.60561 30.0753 4.16663 29.0155 4.16663 27.9104C4.16663 26.8054 4.60561 25.7456 5.38701 24.9642C6.16842 24.1828 7.22822 23.7438 8.33329 23.7438H17.7395C21.0542 23.7439 24.233 25.0606 26.577 27.4042L31.25 32.0771ZM6.24996 32.0771H43.75V36.2438C43.75 37.9014 43.0915 39.4911 41.9194 40.6632C40.7473 41.8353 39.1576 42.4938 37.5 42.4938H12.5C10.8424 42.4938 9.25264 41.8353 8.08054 40.6632C6.90844 39.4911 6.24996 37.9014 6.24996 36.2438V32.0771Z" stroke="#555252" stroke-width="2" stroke-linecap="round" stroke-linejoin="round"/>
<path id="Vector_2" d="M31.2521 15.4104H31.25M25.0021 17.4938H25M25 9.16045C15.3687 9.16045 7.43332 12.8188 6.37082 21.6604C6.23332 22.8063 7.18332 23.7438 8.33332 23.7438H41.6666C42.8166 23.7438 43.7666 22.8063 43.6291 21.6604C42.5666 12.8188 34.6312 9.16045 25 9.16045Z" stroke="#555252" stroke-width="2" stroke-linecap="round" stroke-linejoin="round"/>
</g>
</g>
</svg>
