<svg width="50" height="50" viewBox="0 0 50 50" fill="none" xmlns="http://www.w3.org/2000/svg">
<g id="streamline-emojis:sushi">
<path id="Vector" opacity="0.15" d="M8.02087 32.7917C8.02087 33.2641 10.15 33.7172 13.9398 34.0512C17.7296 34.3852 22.8696 34.5729 28.2292 34.5729C33.5888 34.5729 38.7289 34.3852 42.5187 34.0512C46.3085 33.7172 48.4375 33.2641 48.4375 32.7917C48.4375 32.3193 46.3085 31.8662 42.5187 31.5321C38.7289 31.1981 33.5888 31.0104 28.2292 31.0104C22.8696 31.0104 17.7296 31.1981 13.9398 31.5321C10.15 31.8662 8.02087 32.3193 8.02087 32.7917Z" fill="#555252"/>
<path id="Vector_2" d="M40.1666 32.4167H16.2812C15.6158 32.4167 14.958 32.2759 14.3508 32.0037C13.7437 31.7315 13.2009 31.334 12.7583 30.8372C12.3156 30.3404 11.983 29.7557 11.7823 29.1213C11.5816 28.4869 11.5173 27.8172 11.5937 27.1562C11.9052 24.3407 13.2487 21.7404 15.3647 19.8571C17.4807 17.9738 20.2194 16.9411 23.052 16.9583H33.4687C36.3014 16.9411 39.04 17.9738 41.156 19.8571C43.272 21.7404 44.6155 24.3407 44.927 27.1562C45.0042 27.8234 44.9381 28.4993 44.7331 29.1388C44.5281 29.7784 44.1889 30.3668 43.7383 30.8647C43.2877 31.3627 42.736 31.7587 42.12 32.0263C41.5041 32.294 40.8381 32.427 40.1666 32.4167Z" fill="white"/>
<path id="Vector_3" d="M44.8542 27.1562C44.5426 24.3407 43.1992 21.7404 41.0831 19.8571C38.9671 17.9738 36.2285 16.9411 33.3958 16.9583H22.9792C20.1465 16.9411 17.4079 17.9738 15.2918 19.8571C13.1758 21.7404 11.8324 24.3407 11.5208 27.1562C11.4715 27.6363 11.4961 28.1211 11.5937 28.5938C12.0126 28.9092 12.4952 29.1296 13.0079 29.2393C13.5207 29.349 14.0512 29.3456 14.5625 29.2292C17.4014 28.5752 20.3055 28.2467 23.2187 28.25H33.0833C35.9966 28.2467 38.9007 28.5752 41.7396 29.2292C42.2634 29.3585 42.8096 29.3685 43.3379 29.2585C43.8661 29.1485 44.3629 28.9214 44.7917 28.5938C44.8893 28.1211 44.9139 27.6363 44.8646 27.1562H44.8542Z" fill="#F0F0F0"/>
<path id="Vector_4" d="M44.8541 27.1562C44.9305 27.8172 44.8662 28.4869 44.6655 29.1213C44.4648 29.7557 44.1322 30.3404 43.6895 30.8372C43.2469 31.334 42.7041 31.7315 42.097 32.0037C41.4898 32.2759 40.832 32.4167 40.1666 32.4167H16.2812C15.6158 32.4167 14.958 32.2759 14.3508 32.0037C13.7437 31.7315 13.2009 31.334 12.7583 30.8372C12.3156 30.3404 11.983 29.7557 11.7823 29.1213C11.5816 28.4869 11.5173 27.8172 11.5937 27.1562C11.9052 24.3407 13.2487 21.7404 15.3647 19.8571C17.4807 17.9738 20.2194 16.9411 23.052 16.9583H33.4687C36.2888 16.9592 39.0096 18 41.1102 19.8815C43.2109 21.7631 44.5439 24.3532 44.8541 27.1562Z" stroke="#555252" stroke-linecap="round" stroke-linejoin="round"/>
<path id="Vector_5" d="M40.3646 26.1667C40.8341 26.275 41.322 26.2758 41.7918 26.169C42.2616 26.0623 42.7013 25.8508 43.0779 25.5503C43.4545 25.2498 43.7583 24.8681 43.9667 24.4337C44.1751 23.9993 44.2826 23.5235 44.2813 23.0417C44.2853 21.7341 43.9336 20.4501 43.2639 19.3272C42.5941 18.2042 41.6316 17.2845 40.4792 16.6667C37.8917 15.29 35.0039 14.5743 32.073 14.5833H24.3751C21.4441 14.5743 18.5564 15.29 15.9688 16.6667C14.8208 17.2834 13.8617 18.2002 13.194 19.3192C12.5262 20.4383 12.1747 21.7177 12.1771 23.0208C12.1762 23.5015 12.2836 23.9763 12.4913 24.4097C12.6991 24.8432 13.002 25.2242 13.3773 25.5245C13.7527 25.8248 14.1909 26.0366 14.6594 26.1442C15.1279 26.2517 15.6146 26.2523 16.0834 26.1458C18.6183 25.5608 21.2111 25.2638 23.8126 25.2604H32.6355C35.2378 25.2707 37.8306 25.5747 40.3646 26.1667Z" fill="white"/>
<path id="Vector_6" d="M15.9688 19.6771C18.5553 18.2976 21.4437 17.5817 24.3751 17.5938H32.073C35.0043 17.5817 37.8928 18.2976 40.4792 19.6771C41.3539 20.1478 42.1219 20.7942 42.7349 21.5758C43.348 22.3573 43.7929 23.2571 44.0417 24.2188C44.1876 23.8468 44.2653 23.4516 44.2709 23.0521C44.279 21.7436 43.9302 20.4577 43.2621 19.3326C42.5941 18.2075 41.6319 17.2859 40.4792 16.6667C37.8917 15.29 35.0039 14.5743 32.073 14.5833H24.3751C21.4441 14.5743 18.5564 15.29 15.9688 16.6667C14.8208 17.2834 13.8617 18.2002 13.194 19.3192C12.5262 20.4383 12.1747 21.7177 12.1771 23.0208C12.1828 23.4203 12.2604 23.8156 12.4063 24.1875C12.659 23.2315 13.1057 22.3378 13.7186 21.5619C14.3314 20.7859 15.0974 20.1444 15.9688 19.6771Z" fill="white"/>
<path id="Vector_7" d="M40.3646 26.1667C40.8341 26.275 41.322 26.2758 41.7918 26.169C42.2616 26.0623 42.7013 25.8508 43.0779 25.5503C43.4545 25.2498 43.7583 24.8681 43.9667 24.4337C44.1751 23.9993 44.2826 23.5235 44.2813 23.0417C44.2853 21.7341 43.9336 20.4501 43.2639 19.3272C42.5941 18.2042 41.6316 17.2845 40.4792 16.6667C37.8917 15.29 35.0039 14.5743 32.073 14.5833H24.3751C21.4441 14.5743 18.5564 15.29 15.9688 16.6667C14.8208 17.2834 13.8617 18.2002 13.194 19.3192C12.5262 20.4383 12.1747 21.7177 12.1771 23.0208C12.1762 23.5015 12.2836 23.9763 12.4913 24.4097C12.6991 24.8432 13.002 25.2242 13.3773 25.5245C13.7527 25.8248 14.1909 26.0366 14.6594 26.1442C15.1279 26.2517 15.6146 26.2523 16.0834 26.1458C18.6183 25.5608 21.2111 25.2638 23.8126 25.2604H32.6355C35.2378 25.2707 37.8306 25.5747 40.3646 26.1667Z" stroke="#555252" stroke-linecap="round" stroke-linejoin="round"/>
<path id="Vector_8" d="M16.8854 26.0417V25.9271C17.4448 23.5771 18.4567 21.3587 19.8645 19.3958C21.2977 17.4352 23.125 15.7959 25.2291 14.5833M24.6354 25.2812C25.1914 23.1114 26.2074 21.0865 27.6145 19.3437C29.2801 17.453 31.2565 15.8606 33.4583 14.6354M33.552 25.2812C34.0838 23.4516 35.1156 21.8066 36.5312 20.5312C38.0457 19.4324 39.6326 18.4371 41.2812 17.5521L41.5625 17.4167" stroke="#555252" stroke-linecap="round" stroke-linejoin="round"/>
<path id="Vector_9" opacity="0.15" d="M2.35413 38.9583C2.35413 39.4308 4.48321 39.8838 8.27301 40.2179C12.0628 40.5519 17.2029 40.7396 22.5625 40.7396C27.922 40.7396 33.0621 40.5519 36.8519 40.2179C40.6417 39.8838 42.7708 39.4308 42.7708 38.9583C42.7708 38.4859 40.6417 38.0329 36.8519 37.6988C33.0621 37.3648 27.922 37.1771 22.5625 37.1771C17.2029 37.1771 12.0628 37.3648 8.27301 37.6988C4.48321 38.0329 2.35413 38.4859 2.35413 38.9583Z" fill="#555252"/>
<path id="Vector_10" d="M32.4792 38.9583H8.58333C7.92285 38.9575 7.26989 38.8181 6.6667 38.549C6.06351 38.2799 5.52353 37.8872 5.08169 37.3963C4.63985 36.9053 4.30599 36.3271 4.10172 35.699C3.89744 35.0709 3.8273 34.4069 3.89583 33.75C4.22065 30.9399 5.56799 28.3475 7.68109 26.4669C9.7942 24.5862 12.5254 23.5487 15.3542 23.5521H25.7708C28.6003 23.5464 31.3327 24.5831 33.4463 26.4642C35.5599 28.3453 36.9065 30.939 37.2292 33.75C37.2983 34.4122 37.2265 35.0815 37.0185 35.714C36.8106 36.3464 36.4711 36.9277 36.0225 37.4196C35.5738 37.9116 35.0262 38.303 34.4155 38.5682C33.8048 38.8334 33.1449 38.9663 32.4792 38.9583Z" fill="white"/>
<path id="Vector_11" d="M37.1667 33.6979C36.844 30.8869 35.4974 28.2932 33.3838 26.4121C31.2702 24.5311 28.5378 23.4943 25.7083 23.5H15.2917C12.4629 23.4966 9.73171 24.5341 7.6186 26.4148C5.5055 28.2955 4.15817 30.8878 3.83334 33.6979C3.78733 34.1751 3.81544 34.6565 3.91667 35.125C4.33138 35.4446 4.8118 35.6683 5.32334 35.78C5.83488 35.8917 6.36482 35.8886 6.87501 35.7708C9.71513 35.0965 12.6227 34.7471 15.5417 34.7292H25.4063C28.3219 34.7464 31.226 35.0959 34.0625 35.7708C34.5744 35.888 35.1058 35.8908 35.6189 35.7792C36.1321 35.6676 36.6143 35.4442 37.0313 35.125C37.129 34.6559 37.1536 34.1745 37.1042 33.6979H37.1667Z" fill="#F0F0F0"/>
<path id="Vector_12" d="M37.1667 33.6979C37.2352 34.3548 37.165 35.0188 36.9608 35.6469C36.7565 36.275 36.4226 36.8532 35.9808 37.3442C35.539 37.8351 34.999 38.2278 34.3958 38.4969C33.7926 38.766 33.1396 38.9054 32.4792 38.9062H8.58333C7.92285 38.9054 7.26989 38.766 6.6667 38.4969C6.06351 38.2278 5.52353 37.8351 5.08169 37.3442C4.63985 36.8532 4.30599 36.275 4.10172 35.6469C3.89744 35.0188 3.8273 34.3548 3.89583 33.6979C4.22065 30.8878 5.56799 28.2955 7.68109 26.4148C9.7942 24.5341 12.5254 23.4966 15.3542 23.5H25.7708C28.5895 23.5097 31.3066 24.5533 33.4071 26.4329C35.5075 28.3126 36.8453 30.8976 37.1667 33.6979Z" stroke="#555252" stroke-linecap="round" stroke-linejoin="round"/>
<path id="Vector_13" d="M32.6771 32.7083C33.1458 32.8148 33.6326 32.8142 34.1011 32.7067C34.5696 32.5991 35.0078 32.3873 35.3832 32.087C35.7585 31.7867 36.0614 31.4057 36.2691 30.9722C36.4769 30.5388 36.5843 30.064 36.5833 29.5833C36.5835 28.2806 36.2311 27.0022 35.5636 25.8835C34.896 24.7648 33.9382 23.8476 32.7917 23.2292C30.2041 21.8525 27.3164 21.1368 24.3854 21.1458H16.6667C13.7359 21.1381 10.8484 21.8537 8.26043 23.2292C7.11389 23.8476 6.15607 24.7648 5.48854 25.8835C4.821 27.0022 4.46862 28.2806 4.46876 29.5833C4.46742 30.0651 4.57496 30.541 4.78335 30.9754C4.99173 31.4098 5.29558 31.7915 5.67219 32.092C6.0488 32.3925 6.48844 32.604 6.95826 32.7107C7.42809 32.8174 7.91596 32.8166 8.38543 32.7083C10.9192 32.117 13.5127 31.8199 16.1146 31.8229H24.9271C27.5358 31.8198 30.1363 32.1169 32.6771 32.7083Z" fill="#FDFDFD"/>
<path id="Vector_14" d="M8.27083 26.2188C10.8573 24.8392 13.7458 24.1234 16.6771 24.1354H24.3854C27.3167 24.1234 30.2052 24.8392 32.7917 26.2188C33.6663 26.688 34.4338 27.3341 35.0453 28.116C35.6569 28.8979 36.099 29.7984 36.3438 30.7604C36.4977 30.3905 36.579 29.9944 36.5833 29.5938C36.5835 28.291 36.2311 27.0126 35.5636 25.8939C34.896 24.7752 33.9382 23.858 32.7917 23.2396C30.2041 21.8629 27.3164 21.1473 24.3854 21.1562H16.6667C13.7359 21.1485 10.8484 21.8641 8.26042 23.2396C7.11388 23.858 6.15606 24.7752 5.48852 25.8939C4.82099 27.0126 4.46861 28.291 4.46875 29.5938C4.47792 29.9939 4.55908 30.3891 4.70833 30.7604C4.95834 29.7993 5.4037 28.9 6.01663 28.1186C6.62956 27.3372 7.39691 26.6905 8.27083 26.2188Z" fill="white"/>
<path id="Vector_15" d="M32.6771 32.7083C33.1458 32.8148 33.6326 32.8142 34.1011 32.7067C34.5696 32.5991 35.0078 32.3873 35.3832 32.087C35.7585 31.7867 36.0614 31.4057 36.2691 30.9722C36.4769 30.5388 36.5843 30.064 36.5833 29.5833C36.5835 28.2806 36.2311 27.0022 35.5636 25.8835C34.896 24.7648 33.9382 23.8476 32.7917 23.2292C30.2041 21.8525 27.3164 21.1368 24.3854 21.1458H16.6667C13.7359 21.1381 10.8484 21.8537 8.26043 23.2292C7.11389 23.8476 6.15607 24.7648 5.48854 25.8835C4.821 27.0022 4.46862 28.2806 4.46876 29.5833C4.46742 30.0651 4.57496 30.541 4.78335 30.9754C4.99173 31.4098 5.29558 31.7915 5.67219 32.092C6.0488 32.3925 6.48844 32.604 6.95826 32.7107C7.42809 32.8174 7.91596 32.8166 8.38543 32.7083C10.9192 32.117 13.5127 31.8199 16.1146 31.8229H24.9271C27.5358 31.8198 30.1363 32.1169 32.6771 32.7083Z" stroke="#555252" stroke-linecap="round" stroke-linejoin="round"/>
<path id="Vector_16" d="M9.19788 32.5312V32.4167C9.75154 30.0634 10.76 27.8412 12.1666 25.875C13.6064 23.9409 15.4289 22.324 17.5208 21.125M16.9479 31.8229C17.4994 29.6503 18.5119 27.6217 19.9166 25.875C21.5876 23.9885 23.5672 22.3999 25.7708 21.1771M25.8645 31.8229C26.3946 29.998 27.4227 28.3568 28.8333 27.0833C30.3522 25.9858 31.9426 24.9905 33.5937 24.1042L33.8645 23.9583" stroke="#555252" stroke-linecap="round" stroke-linejoin="round"/>
</g>
</svg>
