<svg width="50" height="51" viewBox="0 0 50 51" fill="none" xmlns="http://www.w3.org/2000/svg">
<g id="4e7dc439dd5e3c3494a698038547a319 1" clip-path="url(#clip0_89_1172)">
<g id="Group">
<g id="Group_2">
<path id="Vector" d="M23.5069 1.03744C21.2154 1.76994 19.5234 4.14144 19.6834 6.37944L19.7369 7.15194L18.8974 7.23194C14.9274 7.64494 12.0899 10.3224 11.2109 14.5189C11.1574 14.7854 10.9844 14.9184 10.5049 15.1049C8.78644 15.7309 6.86794 17.2899 5.96244 18.8084C4.03044 22.0194 4.51044 26.2024 7.14794 29.0799L7.98744 29.9859L9.55944 39.6039C11.0649 48.8494 11.1449 49.2224 11.4644 49.5154L11.8109 49.8084H25.0659C33.8449 49.8084 38.4139 49.7684 38.5739 49.6754C38.7204 49.5954 38.8939 49.4224 38.9734 49.2759C39.0529 49.1294 39.7729 44.7064 40.5719 39.4444L42.0104 29.8924L42.8364 29.0264C44.4084 27.3614 45.3674 24.7234 45.1944 22.4854C44.9414 19.3284 42.7829 16.4639 39.6789 15.1849L38.7999 14.8254L38.6269 14.0394C37.8809 10.3224 34.8699 7.61844 31.0734 7.23194L30.2344 7.15194L30.2874 6.32594C30.3274 5.73994 30.2609 5.28694 30.0474 4.66094C29.0754 1.78344 26.1849 0.18494 23.5069 1.03744ZM25.9714 3.06244C26.7039 3.24894 27.4369 3.84844 27.8229 4.55444C28.2094 5.30044 28.2359 6.88594 27.8629 7.57844C27.3434 8.57744 26.5174 9.13694 25.3849 9.27044C23.4264 9.49694 21.7879 8.09794 21.7879 6.19294C21.7879 5.19394 22.0679 4.48794 22.7204 3.83494C23.5739 2.98244 24.6529 2.72944 25.9714 3.06244ZM21.4024 9.90994C22.1749 10.6294 22.7744 10.9754 23.6404 11.2289C25.3854 11.7354 27.0639 11.2824 28.5694 9.92344C29.1024 9.41694 29.2089 9.37744 30.0479 9.33744C31.9129 9.23094 33.3649 9.81694 34.7904 11.2289C36.0694 12.5079 36.7089 13.9599 36.7089 15.5849C36.7089 16.5039 37.0019 16.7704 38.2409 16.9704C39.1869 17.1304 40.4524 17.8364 41.2384 18.6224C43.2099 20.6474 43.6629 23.8179 42.3444 26.2559C42.1579 26.6024 41.6249 27.2549 41.1589 27.6949L40.3329 28.4944H24.9989H9.67894L9.17244 28.0549C7.64044 26.7359 6.86794 25.1509 6.86794 23.3124C6.86794 20.1284 8.93294 17.5174 11.9569 16.9049C12.8894 16.7184 13.2624 16.3319 13.2624 15.5194C13.2624 14.6669 13.6354 13.3214 14.0619 12.5619C14.5814 11.6559 15.9804 10.3639 16.9129 9.92444C17.9519 9.43144 18.4979 9.32494 19.7369 9.35144C20.8029 9.37694 20.8294 9.39044 21.4024 9.90994ZM39.3729 32.9829C39.1864 34.2884 38.6004 38.1249 38.0939 41.5089L37.1749 47.6769H25.0924C16.8864 47.6769 12.9964 47.6369 12.9964 47.5434C12.9964 47.4634 12.3969 43.7334 11.6644 39.2574C10.9319 34.7814 10.3324 30.9979 10.3324 30.8649C10.3324 30.6384 10.8789 30.6254 25.0264 30.6254H39.7339L39.3729 32.9829Z" fill="#555252"/>
<path id="Vector_2" d="M27.1175 13.1469C25.1725 13.8264 24.853 14.0794 25.0395 14.8119C25.146 15.2514 25.6125 15.7044 25.972 15.7044C26.132 15.7044 27.0775 15.4244 28.09 15.0914C29.7155 14.5454 29.942 14.4384 30.1285 14.0789C30.368 13.5994 30.2885 13.1464 29.8885 12.7734C29.4755 12.4009 29.1555 12.4409 27.1175 13.1469Z" fill="#555252"/>
<path id="Vector_3" d="M16.3264 14.9054C15.9534 15.2784 15.8469 15.8244 16.0734 16.2244C16.2329 16.5044 16.6194 16.6909 18.0584 17.1969C19.0444 17.5434 20.0169 17.8229 20.2034 17.8229C20.9094 17.8494 21.4289 16.9704 21.0959 16.2774C20.9494 15.9579 20.6829 15.8244 19.1244 15.2784C17.0994 14.5854 16.6994 14.5324 16.3264 14.9054Z" fill="#555252"/>
<path id="Vector_4" d="M29.2485 19.5414C27.81 20.0479 27.4235 20.2339 27.2635 20.5139C26.904 21.1534 27.4635 22.1124 28.1695 22.0859C28.356 22.0859 29.3285 21.8064 30.3145 21.4599C31.873 20.9139 32.1395 20.7804 32.286 20.4609C32.619 19.7684 32.126 18.8889 31.42 18.9154C31.207 18.9154 30.2345 19.1949 29.2485 19.5414Z" fill="#555252"/>
<path id="Vector_5" d="M12.61 21.2599C12.33 21.4999 11.131 24.8034 11.131 25.3629C11.131 25.7229 11.5705 26.2024 11.997 26.3089C12.17 26.3489 12.4765 26.3089 12.69 26.2024C13.01 26.0559 13.143 25.7894 13.689 24.2309C14.0355 23.2449 14.315 22.2859 14.315 22.0994C14.3285 21.2729 13.2495 20.7404 12.61 21.2599Z" fill="#555252"/>
<path id="Vector_6" d="M19.7104 22.2589C19.3904 22.4054 19.1244 22.8984 19.1244 23.3249C19.1244 23.6714 21.5759 26.2024 22.0154 26.3224C22.7479 26.4954 23.5209 25.7229 23.3474 24.9899C23.2939 24.8299 22.6679 24.1109 21.9484 23.3914C20.5894 22.0594 20.3499 21.9394 19.7104 22.2589Z" fill="#555252"/>
<path id="Vector_7" d="M36.6154 22.2989C36.2289 22.5784 35.0299 26.1489 35.1634 26.6684C35.3234 27.3479 36.5354 27.6274 36.9749 27.0949C37.1749 26.8554 38.3069 23.4449 38.3069 23.0984C38.2934 22.7654 38.0674 22.4589 37.6809 22.2589C37.2949 22.0459 36.9619 22.0594 36.6154 22.2989Z" fill="#555252"/>
<path id="Vector_8" d="M15.9535 33.9554C15.3275 34.2219 15.314 34.4219 15.927 39.2444C16.2335 41.7224 16.54 43.8404 16.6065 43.9604C16.8065 44.3334 17.4725 44.5334 17.912 44.3599C18.658 44.0404 18.6715 44.0004 18.072 39.1379C17.7655 36.6869 17.459 34.5554 17.3925 34.3819C17.2725 34.1019 16.7665 33.8089 16.42 33.8354C16.3265 33.8354 16.127 33.8889 15.9535 33.9554Z" fill="#555252"/>
<path id="Vector_9" d="M24.4929 33.9555C24.3334 34.0219 24.1464 34.1954 24.0669 34.3419C23.9734 34.5149 23.9204 36.1939 23.9204 39.1779C23.9204 44.2004 23.9204 44.2404 24.7064 44.4134C25.1459 44.5069 25.8389 44.2134 25.9719 43.8804C26.0119 43.7604 26.0519 41.5889 26.0519 39.0709V34.4749L25.7189 34.1554C25.3854 33.8089 24.9989 33.7559 24.4929 33.9555Z" fill="#555252"/>
<path id="Vector_10" d="M32.7789 34.1555C32.5924 34.3285 32.4459 34.5415 32.4459 34.6215C32.4459 34.715 32.2064 36.7265 31.8999 39.111C31.6069 41.4955 31.3939 43.587 31.4339 43.76C31.4869 43.96 31.7004 44.173 31.9799 44.3065C32.4064 44.5065 32.4864 44.5065 32.8989 44.3065C33.1519 44.1865 33.3919 43.9865 33.4319 43.8535C33.4584 43.7205 33.7384 41.6155 34.0449 39.164C34.6444 34.368 34.6444 34.2885 33.9514 33.9685C33.4584 33.7425 33.1254 33.7955 32.7789 34.1555Z" fill="#555252"/>
</g>
</g>
</g>
<defs>
<clipPath id="clip0_89_1172">
<rect width="50" height="50" fill="white" transform="translate(0 0.308441)"/>
</clipPath>
</defs>
</svg>
