<svg width="53" height="54" viewBox="0 0 53 54" fill="none" xmlns="http://www.w3.org/2000/svg">
<g id="mdi:pasta">
<path id="Vector" d="M8.83329 37.0543V18.2835H6.62496V16.0752H8.83329V13.8668H6.62496V11.6585H8.83329V9.45015H6.62496V7.24182H19.875C20.9791 7.30807 21.9729 7.77182 22.8341 8.63307C23.6954 9.49432 24.1812 10.5543 24.2916 11.6585H46.375V13.8668H24.2916C24.1812 15.0372 23.6954 16.0752 22.8341 17.0247C21.9729 17.9743 20.9791 18.3939 19.875 18.2835H15.4583V33.8522C15.5687 33.8522 15.7454 33.8302 15.9883 33.7418C16.2312 33.6535 16.43 33.7418 16.5625 33.7418C17.7991 33.7418 19.2125 34.051 20.8025 34.6693C21.7079 32.6377 23.2537 30.8268 25.462 29.3252C27.6704 27.8235 29.8787 27.1168 32.087 27.1168C35.4658 27.1168 38.3366 28.2872 40.6775 30.6281C43.0183 32.9689 44.1666 35.8397 44.1666 39.2627V39.8589C44.1666 40.146 44.1004 40.3006 44.1004 40.3668H6.93413C7.22121 39.2627 7.83954 38.1585 8.83329 37.0543ZM13.25 34.2497V18.2835H11.0416V35.2877C12.1458 34.7356 12.8304 34.4043 13.25 34.2497ZM19.875 16.0752V13.8668H15.4583V16.0752H19.875ZM19.875 9.45015H15.4583V11.6585H19.875V9.45015ZM11.0416 9.45015V11.6585H13.25V9.45015H11.0416ZM11.0416 13.8668V16.0752H13.25V13.8668H11.0416ZM4.41663 42.5752H48.5833L44.1666 46.9918H8.83329L4.41663 42.5752Z" fill="#555252"/>
</g>
</svg>
