<svg width="52" height="53" viewBox="0 0 52 53" fill="none" xmlns="http://www.w3.org/2000/svg">
<g id="mdi:french-fry">
<path id="Vector" d="M39 24.796V13.9626H32.5V9.62929H26V5.29596H17.3334V11.796H13V24.796H10.8334L15.1667 48.6293H36.8334L41.1667 24.796H39ZM34.3634 24.796C34.0167 26.1176 33.3667 27.3093 32.5 28.306V19.6393L36.8334 21.806V24.796H34.3634ZM36.8334 16.1293V19.3793L32.5 17.2126V16.1293H36.8334ZM26 11.796H30.3334V19.3793L26 21.546V11.796ZM26 23.9726L30.3334 21.806V30.1043C29.055 30.8626 27.5817 31.296 26 31.296V23.9726ZM23.8334 30.9926C22.1217 30.5376 20.5834 29.606 19.5 28.306V21.806L23.8334 19.6393V30.9926ZM19.5 7.46263H23.8334V17.2126L21.6667 18.296V11.796H19.5V7.46263ZM15.1667 13.9626H19.5V19.3793L17.3334 20.4626V24.796H15.1667V13.9626Z" fill="#555252"/>
</g>
</svg>
