<svg width="51" height="52" viewBox="0 0 51 52" fill="none" xmlns="http://www.w3.org/2000/svg">
<g id="lucide:soup">
<path id="Vector" d="M14.875 45.1063H36.125M41.4375 25.9813L46.75 13.2313M34.5312 6.85632C35.105 7.06882 36.2313 7.98257 36.125 9.74632C35.9975 11.5101 34.1488 12.2963 34 14.0388C33.8937 15.6963 34.7225 16.6738 35.5512 17.4813M23.9062 6.85632C24.48 7.06882 25.6062 7.98257 25.4787 9.74632C25.3725 11.5101 23.5025 12.2963 23.3963 14.0388C23.2688 15.6963 24.0975 16.6738 24.9262 17.4813M13.2812 6.85632C13.855 7.06882 14.9813 7.98257 14.875 9.74632C14.7475 11.5101 12.8988 12.2963 12.75 14.0388C12.6437 15.6963 13.4725 16.6738 14.3225 17.4813M25.5 45.1063C30.5723 45.1063 35.4368 43.0914 39.0234 39.5047C42.61 35.9181 44.625 31.0536 44.625 25.9813H6.375C6.375 31.0536 8.38995 35.9181 11.9766 39.5047C15.5632 43.0914 20.4277 45.1063 25.5 45.1063Z" stroke="#555252" stroke-width="2" stroke-linecap="round" stroke-linejoin="round"/>
</g>
</svg>
