<svg width="25" height="20" viewBox="0 0 21 20" fill="none" xmlns="http://www.w3.org/2000/svg">
<g id="solar:trash-bin-trash-linear">
<g id="Group">
<path id="Vector" d="M18.0602 5H3.89355M16.6711 7.08333L16.2877 12.8333C16.1402 15.045 16.0669 16.1508 15.3461 16.825C14.6252 17.5 13.5161 17.5 11.2994 17.5H10.6544C8.43772 17.5 7.32855 17.5 6.60772 16.825C5.88689 16.1508 5.81272 15.045 5.66605 12.8333L5.28272 7.08333M8.89355 9.16667L9.31022 13.3333M13.0602 9.16667L12.6436 13.3333" stroke="black" stroke-width="1.5" stroke-linecap="round"/>
<path id="Vector_2" d="M6.39355 5H6.48522C6.82059 4.99143 7.14557 4.88185 7.41766 4.68559C7.68974 4.48934 7.89627 4.21553 8.01022 3.9L8.03855 3.81417L8.11939 3.57167C8.18855 3.36417 8.22356 3.26083 8.26939 3.1725C8.35956 2.99949 8.48898 2.84999 8.64729 2.73597C8.80559 2.62194 8.98839 2.54655 9.18106 2.51583C9.27856 2.5 9.38772 2.5 9.60605 2.5H12.3477C12.5661 2.5 12.6752 2.5 12.7727 2.51583C12.9654 2.54655 13.1482 2.62194 13.3065 2.73597C13.4648 2.84999 13.5942 2.99949 13.6844 3.1725C13.7302 3.26083 13.7652 3.36417 13.8344 3.57167L13.9152 3.81417C14.0208 4.16523 14.2392 4.47167 14.5366 4.68605C14.834 4.90043 15.1938 5.01077 15.5602 5" stroke="black" stroke-width="1.5"/>
</g>
</g>
</svg>
